<mxfile host="app.diagrams.net" modified="2024-04-12T18:18:40.926Z" agent="Mozilla/5.0 (Windows NT 10.0; Win64; x64) AppleWebKit/537.36 (KHTML, like Gecko) Chrome/123.0.0.0 Safari/537.36" etag="IZfHRJlwJWZK_gCuREFX" version="24.0.6" type="github">
  <diagram name="Page-1" id="wiAJlp-CiOZ2Dr0X3il1">
    <mxGraphModel dx="1434" dy="780" grid="1" gridSize="10" guides="1" tooltips="1" connect="1" arrows="1" fold="1" page="1" pageScale="1" pageWidth="850" pageHeight="1100" math="0" shadow="0">
      <root>
        <mxCell id="0" />
        <mxCell id="1" parent="0" />
        <mxCell id="VB3SPjhytcHIhIstoib5-3" value="&lt;font style=&quot;font-size: 18px;&quot;&gt;&lt;b&gt;Payaq&lt;/b&gt;&lt;/font&gt;" style="text;html=1;align=center;verticalAlign=middle;whiteSpace=wrap;rounded=0;" vertex="1" parent="1">
          <mxGeometry x="365" y="20" width="120" height="40" as="geometry" />
        </mxCell>
        <mxCell id="VB3SPjhytcHIhIstoib5-4" value="" style="rounded=0;whiteSpace=wrap;html=1;" vertex="1" parent="1">
          <mxGeometry x="40" y="80" width="160" height="200" as="geometry" />
        </mxCell>
        <mxCell id="VB3SPjhytcHIhIstoib5-5" value="&lt;font style=&quot;font-size: 14px;&quot;&gt;Front-End&lt;/font&gt;" style="text;html=1;align=center;verticalAlign=middle;whiteSpace=wrap;rounded=0;fontStyle=1" vertex="1" parent="1">
          <mxGeometry x="75" y="80" width="90" height="30" as="geometry" />
        </mxCell>
        <mxCell id="VB3SPjhytcHIhIstoib5-6" value="Payaq front" style="rounded=1;whiteSpace=wrap;html=1;" vertex="1" parent="1">
          <mxGeometry x="60" y="120" width="120" height="60" as="geometry" />
        </mxCell>
        <mxCell id="VB3SPjhytcHIhIstoib5-7" value="Api Clientes" style="rounded=1;whiteSpace=wrap;html=1;" vertex="1" parent="1">
          <mxGeometry x="60" y="200" width="120" height="60" as="geometry" />
        </mxCell>
        <mxCell id="VB3SPjhytcHIhIstoib5-8" value="" style="rounded=0;whiteSpace=wrap;html=1;arcSize=5;" vertex="1" parent="1">
          <mxGeometry x="280" y="80" width="240" height="480" as="geometry" />
        </mxCell>
        <mxCell id="VB3SPjhytcHIhIstoib5-9" value="&lt;font style=&quot;font-size: 14px;&quot;&gt;BackEnd&lt;/font&gt;" style="text;html=1;align=center;verticalAlign=middle;whiteSpace=wrap;rounded=0;fontStyle=1" vertex="1" parent="1">
          <mxGeometry x="355" y="80" width="90" height="30" as="geometry" />
        </mxCell>
        <mxCell id="VB3SPjhytcHIhIstoib5-10" value="IboltPag" style="rounded=1;whiteSpace=wrap;html=1;" vertex="1" parent="1">
          <mxGeometry x="340" y="120" width="120" height="60" as="geometry" />
        </mxCell>
        <mxCell id="VB3SPjhytcHIhIstoib5-11" value="Payaq-fm" style="rounded=1;whiteSpace=wrap;html=1;" vertex="1" parent="1">
          <mxGeometry x="340" y="204" width="120" height="60" as="geometry" />
        </mxCell>
        <mxCell id="VB3SPjhytcHIhIstoib5-13" value="Emissor" style="rounded=1;whiteSpace=wrap;html=1;" vertex="1" parent="1">
          <mxGeometry x="340" y="288" width="120" height="60" as="geometry" />
        </mxCell>
        <mxCell id="VB3SPjhytcHIhIstoib5-14" value="NFe" style="rounded=1;whiteSpace=wrap;html=1;" vertex="1" parent="1">
          <mxGeometry x="340" y="371" width="120" height="60" as="geometry" />
        </mxCell>
        <mxCell id="VB3SPjhytcHIhIstoib5-15" value="NFce" style="rounded=1;whiteSpace=wrap;html=1;" vertex="1" parent="1">
          <mxGeometry x="340" y="455" width="120" height="60" as="geometry" />
        </mxCell>
        <mxCell id="VB3SPjhytcHIhIstoib5-16" value="" style="rounded=0;whiteSpace=wrap;html=1;arcSize=5;" vertex="1" parent="1">
          <mxGeometry x="950" y="80" width="160" height="260" as="geometry" />
        </mxCell>
        <mxCell id="VB3SPjhytcHIhIstoib5-17" value="&lt;span style=&quot;font-size: 14px;&quot;&gt;BackEnd ServiÃ§os&lt;/span&gt;" style="text;html=1;align=center;verticalAlign=middle;whiteSpace=wrap;rounded=0;fontStyle=1" vertex="1" parent="1">
          <mxGeometry x="960" y="80" width="140" height="30" as="geometry" />
        </mxCell>
        <mxCell id="VB3SPjhytcHIhIstoib5-18" value="Inter" style="rounded=1;whiteSpace=wrap;html=1;" vertex="1" parent="1">
          <mxGeometry x="970" y="120" width="120" height="60" as="geometry" />
        </mxCell>
        <mxCell id="VB3SPjhytcHIhIstoib5-19" value="Bradesco" style="rounded=1;whiteSpace=wrap;html=1;" vertex="1" parent="1">
          <mxGeometry x="970" y="190" width="120" height="60" as="geometry" />
        </mxCell>
        <mxCell id="VB3SPjhytcHIhIstoib5-20" value="Itau" style="rounded=1;whiteSpace=wrap;html=1;" vertex="1" parent="1">
          <mxGeometry x="970" y="260" width="120" height="60" as="geometry" />
        </mxCell>
        <mxCell id="VB3SPjhytcHIhIstoib5-21" value="" style="rounded=0;whiteSpace=wrap;html=1;" vertex="1" parent="1">
          <mxGeometry x="950" y="355" width="160" height="160" as="geometry" />
        </mxCell>
        <mxCell id="VB3SPjhytcHIhIstoib5-32" style="edgeStyle=orthogonalEdgeStyle;rounded=0;orthogonalLoop=1;jettySize=auto;html=1;exitX=0;exitY=0.75;exitDx=0;exitDy=0;entryX=0.5;entryY=1;entryDx=0;entryDy=0;fillColor=#dae8fc;strokeColor=#6c8ebf;strokeWidth=4;" edge="1" parent="1" source="VB3SPjhytcHIhIstoib5-12" target="VB3SPjhytcHIhIstoib5-24">
          <mxGeometry relative="1" as="geometry" />
        </mxCell>
        <mxCell id="VB3SPjhytcHIhIstoib5-33" style="edgeStyle=orthogonalEdgeStyle;rounded=0;orthogonalLoop=1;jettySize=auto;html=1;exitX=0;exitY=0.5;exitDx=0;exitDy=0;entryX=1;entryY=0.75;entryDx=0;entryDy=0;fillColor=#dae8fc;strokeColor=#6c8ebf;strokeWidth=4;" edge="1" parent="1" source="VB3SPjhytcHIhIstoib5-12" target="VB3SPjhytcHIhIstoib5-10">
          <mxGeometry relative="1" as="geometry">
            <Array as="points">
              <mxPoint x="500" y="435" />
              <mxPoint x="500" y="165" />
            </Array>
          </mxGeometry>
        </mxCell>
        <mxCell id="VB3SPjhytcHIhIstoib5-12" value="Rotina Iboltpag&lt;div&gt;&lt;br&gt;&lt;div&gt;-&amp;gt; BRADESCO&lt;/div&gt;&lt;/div&gt;" style="rounded=1;whiteSpace=wrap;html=1;" vertex="1" parent="1">
          <mxGeometry x="970" y="405" width="120" height="60" as="geometry" />
        </mxCell>
        <mxCell id="VB3SPjhytcHIhIstoib5-22" value="&lt;font style=&quot;font-size: 14px;&quot;&gt;BackEnd rotinas&lt;/font&gt;" style="text;html=1;align=center;verticalAlign=middle;whiteSpace=wrap;rounded=0;fontStyle=1" vertex="1" parent="1">
          <mxGeometry x="960" y="355" width="140" height="30" as="geometry" />
        </mxCell>
        <mxCell id="VB3SPjhytcHIhIstoib5-24" value="" style="rounded=0;whiteSpace=wrap;html=1;" vertex="1" parent="1">
          <mxGeometry x="640" y="455" width="170" height="170" as="geometry" />
        </mxCell>
        <mxCell id="VB3SPjhytcHIhIstoib5-23" value="IBOLTPAG DB" style="strokeWidth=2;html=1;shape=mxgraph.flowchart.database;whiteSpace=wrap;" vertex="1" parent="1">
          <mxGeometry x="670" y="490" width="110" height="100" as="geometry" />
        </mxCell>
        <mxCell id="VB3SPjhytcHIhIstoib5-28" style="edgeStyle=orthogonalEdgeStyle;rounded=1;orthogonalLoop=1;jettySize=auto;html=1;exitX=1;exitY=0.5;exitDx=0;exitDy=0;entryX=0;entryY=0.5;entryDx=0;entryDy=0;curved=0;strokeWidth=2;fillColor=#f8cecc;strokeColor=#b85450;" edge="1" parent="1" source="VB3SPjhytcHIhIstoib5-10" target="VB3SPjhytcHIhIstoib5-18">
          <mxGeometry relative="1" as="geometry" />
        </mxCell>
        <mxCell id="VB3SPjhytcHIhIstoib5-29" style="edgeStyle=orthogonalEdgeStyle;rounded=1;orthogonalLoop=1;jettySize=auto;html=1;exitX=1;exitY=0.5;exitDx=0;exitDy=0;entryX=0;entryY=0.5;entryDx=0;entryDy=0;curved=0;strokeWidth=2;fillColor=#f8cecc;strokeColor=#b85450;" edge="1" parent="1" source="VB3SPjhytcHIhIstoib5-10" target="VB3SPjhytcHIhIstoib5-19">
          <mxGeometry relative="1" as="geometry">
            <Array as="points">
              <mxPoint x="530" y="150" />
              <mxPoint x="530" y="220" />
            </Array>
          </mxGeometry>
        </mxCell>
        <mxCell id="VB3SPjhytcHIhIstoib5-30" style="edgeStyle=orthogonalEdgeStyle;rounded=1;orthogonalLoop=1;jettySize=auto;html=1;exitX=1;exitY=0.5;exitDx=0;exitDy=0;entryX=0;entryY=0.5;entryDx=0;entryDy=0;curved=0;strokeWidth=2;fillColor=#f8cecc;strokeColor=#b85450;" edge="1" parent="1" source="VB3SPjhytcHIhIstoib5-10" target="VB3SPjhytcHIhIstoib5-20">
          <mxGeometry relative="1" as="geometry">
            <Array as="points">
              <mxPoint x="530" y="150" />
              <mxPoint x="530" y="290" />
            </Array>
          </mxGeometry>
        </mxCell>
        <mxCell id="VB3SPjhytcHIhIstoib5-34" style="edgeStyle=orthogonalEdgeStyle;rounded=0;orthogonalLoop=1;jettySize=auto;html=1;exitX=1;exitY=0.25;exitDx=0;exitDy=0;entryX=0;entryY=0.25;entryDx=0;entryDy=0;strokeWidth=4;fillColor=#dae8fc;strokeColor=#6c8ebf;" edge="1" parent="1" source="VB3SPjhytcHIhIstoib5-6" target="VB3SPjhytcHIhIstoib5-10">
          <mxGeometry relative="1" as="geometry" />
        </mxCell>
        <mxCell id="VB3SPjhytcHIhIstoib5-35" style="edgeStyle=orthogonalEdgeStyle;rounded=0;orthogonalLoop=1;jettySize=auto;html=1;exitX=1;exitY=0.5;exitDx=0;exitDy=0;entryX=0;entryY=0.5;entryDx=0;entryDy=0;strokeWidth=2;fillColor=#f8cecc;strokeColor=#b85450;" edge="1" parent="1" source="VB3SPjhytcHIhIstoib5-6" target="VB3SPjhytcHIhIstoib5-10">
          <mxGeometry relative="1" as="geometry" />
        </mxCell>
        <mxCell id="VB3SPjhytcHIhIstoib5-36" style="edgeStyle=orthogonalEdgeStyle;rounded=0;orthogonalLoop=1;jettySize=auto;html=1;exitX=1;exitY=0.5;exitDx=0;exitDy=0;entryX=0;entryY=0.75;entryDx=0;entryDy=0;fillColor=#fff2cc;strokeColor=#d6b656;strokeWidth=3;" edge="1" parent="1" source="VB3SPjhytcHIhIstoib5-7" target="VB3SPjhytcHIhIstoib5-10">
          <mxGeometry relative="1" as="geometry" />
        </mxCell>
        <mxCell id="VB3SPjhytcHIhIstoib5-37" value="" style="rounded=0;whiteSpace=wrap;html=1;" vertex="1" parent="1">
          <mxGeometry x="1250" y="40" width="440" height="280" as="geometry" />
        </mxCell>
        <mxCell id="VB3SPjhytcHIhIstoib5-39" value="" style="triangle;whiteSpace=wrap;html=1;rotation=-180;" vertex="1" parent="1">
          <mxGeometry x="1140" y="155" width="110" height="50" as="geometry" />
        </mxCell>
        <mxCell id="VB3SPjhytcHIhIstoib5-40" value="Essa requisiÃ§Ã£o Ã© a primaria, ela envia as informaÃ§Ãµes esqueleto do boleto&amp;nbsp;" style="text;html=1;align=left;verticalAlign=middle;whiteSpace=wrap;rounded=0;" vertex="1" parent="1">
          <mxGeometry x="1270" y="40" width="440" height="30" as="geometry" />
        </mxCell>
      </root>
    </mxGraphModel>
  </diagram>
</mxfile>
